<?xml version="1.0" standalone="no"?>
<!DOCTYPE svg PUBLIC "-//W3C//DTD SVG 20010904//EN"
 "http://www.w3.org/TR/2001/REC-SVG-20010904/DTD/svg10.dtd">
<svg version="1.0" xmlns="http://www.w3.org/2000/svg"
 width="512.000000pt" height="512.000000pt" viewBox="0 0 512.000000 512.000000"
 preserveAspectRatio="xMidYMid meet">

<g transform="translate(0.000000,512.000000) scale(0.100000,-0.100000)"
fill="#000000" stroke="none">
<path d="M770 4878 l0 -243 -52 -29 c-66 -37 -167 -138 -204 -204 l-29 -52
-242 0 -243 0 0 -85 0 -85 215 0 215 0 0 -125 0 -125 -215 0 -215 0 0 -90 0
-90 215 0 215 0 0 -125 0 -125 -215 0 -215 0 0 -85 0 -85 215 0 215 0 0 -130
0 -130 -215 0 -215 0 0 -85 0 -85 215 0 215 0 0 -125 0 -125 -215 0 -215 0 0
-90 0 -90 215 0 215 0 0 -125 0 -125 -215 0 -215 0 0 -85 0 -85 215 0 215 0 0
-130 0 -130 -215 0 -215 0 0 -85 0 -85 215 0 215 0 0 -125 0 -125 -215 0 -215
0 0 -90 0 -90 215 0 215 0 0 -125 0 -125 -215 0 -215 0 0 -85 0 -85 243 0 242
0 29 -52 c37 -66 138 -167 204 -204 l52 -29 0 -242 0 -243 85 0 85 0 0 215 0
215 125 0 125 0 0 -215 0 -215 90 0 90 0 0 215 0 215 125 0 125 0 0 -215 0
-215 85 0 85 0 0 215 0 215 130 0 130 0 0 -215 0 -215 85 0 85 0 0 215 0 215
125 0 125 0 0 -215 0 -215 90 0 90 0 0 215 0 215 125 0 125 0 0 -215 0 -215
85 0 85 0 0 215 0 215 130 0 130 0 0 -215 0 -215 85 0 85 0 0 215 0 215 125 0
125 0 0 -215 0 -215 90 0 90 0 0 215 0 215 125 0 125 0 0 -215 0 -215 85 0 85
0 0 243 0 242 52 29 c66 37 167 138 204 204 l29 52 243 0 242 0 0 85 0 85
-215 0 -215 0 0 125 0 125 215 0 215 0 0 90 0 90 -215 0 -215 0 0 125 0 125
215 0 215 0 0 85 0 85 -215 0 -215 0 0 130 0 130 215 0 215 0 0 85 0 85 -215
0 -215 0 0 125 0 125 215 0 215 0 0 90 0 90 -215 0 -215 0 0 125 0 125 215 0
215 0 0 85 0 85 -215 0 -215 0 0 130 0 130 215 0 215 0 0 85 0 85 -215 0 -215
0 0 125 0 125 215 0 215 0 0 90 0 90 -215 0 -215 0 0 125 0 125 215 0 215 0 0
85 0 85 -242 0 -243 0 -29 52 c-37 66 -138 167 -204 204 l-52 29 0 243 0 242
-85 0 -85 0 0 -215 0 -215 -125 0 -125 0 0 215 0 215 -90 0 -90 0 0 -215 0
-215 -125 0 -125 0 0 215 0 215 -85 0 -85 0 0 -215 0 -215 -130 0 -130 0 0
215 0 215 -85 0 -85 0 0 -215 0 -215 -125 0 -125 0 0 215 0 215 -90 0 -90 0 0
-215 0 -215 -125 0 -125 0 0 215 0 215 -85 0 -85 0 0 -215 0 -215 -130 0 -130
0 0 215 0 215 -85 0 -85 0 0 -215 0 -215 -125 0 -125 0 0 215 0 215 -90 0 -90
0 0 -215 0 -215 -125 0 -125 0 0 215 0 215 -85 0 -85 0 0 -242z m3452 -378
c129 -40 238 -149 278 -278 20 -63 20 -97 20 -1662 0 -1565 0 -1599 -20 -1662
-40 -129 -149 -238 -278 -278 -63 -20 -97 -20 -1662 -20 -1565 0 -1599 0
-1662 20 -129 40 -238 149 -278 278 -20 63 -20 97 -20 1662 0 1572 0 1599 20
1663 39 127 148 236 276 277 57 18 120 19 1660 19 1570 1 1603 1 1666 -19z"/>
<path d="M1047 4256 c-74 -20 -127 -63 -162 -131 l-30 -59 0 -1506 0 -1506 30
-60 c36 -70 97 -116 175 -133 71 -15 2929 -15 3000 0 78 17 139 63 175 133
l30 60 0 1506 0 1506 -30 60 c-36 70 -97 116 -175 133 -80 17 -2949 14 -3013
-3z m3020 -189 l28 -27 0 -1480 0 -1480 -28 -27 -27 -28 -1480 0 -1480 0 -27
28 -28 27 0 1479 c0 1465 0 1479 20 1501 11 12 29 26 40 31 11 4 680 7 1487 6
l1468 -2 27 -28z"/>
<path d="M1334 3921 c-51 -13 -91 -42 -115 -85 -21 -37 -24 -57 -27 -188 l-4
-148 91 0 91 0 0 125 0 125 125 0 125 0 0 90 0 90 -127 -1 c-71 -1 -142 -4
-159 -8z"/>
<path d="M3754 3917 c-3 -8 -4 -47 -2 -88 l3 -74 85 0 85 0 0 85 0 85 -83 3
c-63 2 -84 0 -88 -11z"/>
<path d="M2075 3735 c-306 -67 -533 -259 -640 -540 -118 -311 -45 -644 195
-894 47 -50 122 -111 136 -111 4 0 15 -7 24 -15 9 -8 58 -33 109 -55 98 -43
229 -70 336 -70 159 0 335 53 475 144 l73 48 29 -29 28 -29 -25 -34 c-33 -44
-34 -104 -2 -146 21 -29 529 -536 595 -595 25 -23 42 -29 76 -29 51 0 86 25
198 143 l68 72 0 -112 0 -113 -125 0 -125 0 0 -90 0 -90 213 2 212 3 3 213 2
212 -84 0 -83 0 -6 47 c-5 45 -10 51 -318 359 -273 272 -319 313 -352 319 -41
8 -89 -7 -116 -37 -17 -17 -19 -16 -49 15 l-33 34 30 37 c130 163 197 428 160
632 -48 270 -203 489 -439 621 -157 89 -395 126 -565 88z m339 -166 c301 -75
516 -354 516 -669 0 -351 -251 -636 -609 -691 -224 -34 -487 72 -629 255 -177
227 -204 512 -73 761 86 163 250 297 420 342 129 34 242 35 375 2z m689 -1427
l37 -38 -55 -54 -55 -54 -26 25 c-49 46 -49 54 3 109 27 27 50 50 53 50 3 0
23 -17 43 -38z m435 -539 c-43 -44 -54 -50 -67 -40 -9 7 -87 82 -173 168
l-157 156 52 56 52 55 172 -171 173 -172 -52 -52z"/>
<path d="M2187 3428 c-24 -18 -33 -87 -15 -112 10 -13 40 -23 98 -33 110 -19
178 -52 242 -119 58 -59 107 -163 108 -226 0 -96 50 -139 119 -103 36 18 42
49 30 145 -29 238 -246 441 -488 457 -55 4 -81 1 -94 -9z"/>
<path d="M1194 1357 c-3 -8 -4 -47 -2 -88 l3 -74 85 0 85 0 0 85 0 85 -83 3
c-63 2 -84 0 -88 -11z"/>
</g>
</svg>
